<?xml version="1.0" encoding="utf-8"?>
<!-- Generator: Adobe Illustrator 16.0.0, SVG Export Plug-In . SVG Version: 6.00 Build 0)  -->
<!DOCTYPE svg PUBLIC "-//W3C//DTD SVG 1.1//EN" "http://www.w3.org/Graphics/SVG/1.1/DTD/svg11.dtd">
<svg version="1.1" id="Layer_1" xmlns="http://www.w3.org/2000/svg" xmlns:xlink="http://www.w3.org/1999/xlink" x="0px" y="0px"
	 width="100px" height="100px" viewBox="0 0 100 100" enable-background="new 0 0 100 100" xml:space="preserve">
<g>
	<path fill="#58595B" d="M57.785,58.92c-0.305,0.837-1.232,1.264-2.069,0.951s-1.264-1.24-0.952-2.078
		c0.313-0.829,1.241-1.263,2.078-0.943C57.679,57.154,58.105,58.09,57.785,58.92"/>
	<path fill="#58595B" d="M52.588,63.638c-0.396,1.059-1.568,1.591-2.625,1.203c-1.058-0.396-1.598-1.575-1.203-2.634
		c0.396-1.05,1.568-1.59,2.625-1.194C52.443,61.408,52.977,62.58,52.588,63.638"/>
	<path fill="#58595B" d="M47.39,62.687c-0.396,1.058-1.568,1.591-2.625,1.202c-1.058-0.403-1.59-1.575-1.195-2.633
		c0.396-1.05,1.568-1.59,2.625-1.194C47.253,60.449,47.786,61.629,47.39,62.687"/>
	<path fill="#58595B" d="M54.848,57.801c-0.472,1.279-1.895,1.934-3.166,1.454c-1.278-0.472-1.932-1.896-1.453-3.174
		c0.479-1.271,1.895-1.925,3.174-1.446C54.681,55.107,55.328,56.53,54.848,57.801"/>
	<path fill="#58595B" d="M18.411,12.354c-0.229,0.616-0.913,0.928-1.522,0.7c-0.624-0.229-0.928-0.914-0.7-1.53
		c0.229-0.616,0.913-0.936,1.53-0.7C18.335,11.053,18.64,11.737,18.411,12.354"/>
	<path fill="#58595B" d="M17.422,21.958c-0.229,0.616-0.913,0.928-1.53,0.7c-0.616-0.228-0.928-0.92-0.692-1.529
		c0.229-0.617,0.913-0.929,1.522-0.7C17.346,20.656,17.65,21.341,17.422,21.958"/>
	<path fill="#58595B" d="M19.819,29.963c-0.228,0.609-0.913,0.929-1.529,0.693c-0.617-0.229-0.929-0.914-0.7-1.53
		c0.228-0.609,0.913-0.928,1.537-0.7C19.735,28.662,20.055,29.347,19.819,29.963"/>
	<path fill="#58595B" d="M26.539,31.455c-0.228,0.617-0.913,0.929-1.53,0.7c-0.616-0.236-0.928-0.913-0.7-1.53
		c0.236-0.616,0.92-0.928,1.529-0.7C26.455,30.154,26.767,30.831,26.539,31.455"/>
	<path fill="#58595B" d="M42.992,36.082c-0.229,0.616-0.914,0.929-1.538,0.7c-0.608-0.229-0.928-0.913-0.692-1.53
		c0.229-0.616,0.913-0.928,1.53-0.7C42.908,34.781,43.22,35.466,42.992,36.082"/>
	<path fill="#58595B" d="M42.391,44.149c-0.221,0.616-0.914,0.928-1.53,0.7c-0.617-0.228-0.929-0.92-0.7-1.529
		c0.229-0.617,0.913-0.929,1.537-0.7C42.307,42.847,42.626,43.532,42.391,44.149"/>
	<path fill="#58595B" d="M39.11,63.889c-0.228,0.617-0.913,0.929-1.522,0.7c-0.624-0.235-0.928-0.913-0.7-1.537
		c0.229-0.608,0.914-0.921,1.53-0.7C39.034,62.588,39.346,63.272,39.11,63.889"/>
	<path fill="#58595B" d="M35.967,59.895c-0.236,0.615-0.92,0.928-1.529,0.699c-0.624-0.229-0.929-0.913-0.7-1.529
		c0.228-0.617,0.913-0.929,1.53-0.7C35.884,58.593,36.196,59.285,35.967,59.895"/>
	<path fill="#58595B" d="M35.58,32.49c-0.464,1.24-1.834,1.857-3.06,1.408c-1.233-0.464-1.864-1.834-1.4-3.067
		c0.457-1.233,1.826-1.857,3.059-1.4C35.412,29.895,36.036,31.265,35.58,32.49"/>
	<path fill="#58595B" d="M11.075,31.333c0.312-0.83,1.24-1.256,2.07-0.944c0.837,0.305,1.255,1.233,0.944,2.063
		c-0.313,0.837-1.233,1.255-2.07,0.951C11.189,33.091,10.771,32.163,11.075,31.333"/>
	<path fill="#58595B" d="M44.346,68.813c-0.563,1.5-2.222,2.261-3.721,1.705c-1.5-0.563-2.26-2.223-1.697-3.722
		c0.556-1.491,2.222-2.26,3.714-1.696C44.141,65.654,44.909,67.321,44.346,68.813"/>
	<path fill="#58595B" d="M40.366,56.006c-0.556,1.49-2.222,2.252-3.721,1.696c-1.492-0.563-2.253-2.222-1.697-3.722
		c0.556-1.499,2.23-2.26,3.721-1.704C40.161,52.84,40.922,54.498,40.366,56.006"/>
	<path fill="#58595B" d="M37.314,68.844c-0.556,1.491-2.222,2.252-3.714,1.696c-1.499-0.563-2.268-2.222-1.705-3.721
		c0.556-1.499,2.222-2.261,3.721-1.705C37.117,65.678,37.877,67.337,37.314,68.844"/>
	<path fill="#58595B" d="M62.687,57.672c-0.472,1.278-1.903,1.933-3.173,1.453c-1.279-0.479-1.926-1.902-1.454-3.174
		c0.479-1.277,1.902-1.925,3.181-1.453C62.512,54.978,63.158,56.393,62.687,57.672"/>
	<path fill="#58595B" d="M48.775,34.065c-0.244,0.639-0.959,0.966-1.606,0.73c-0.647-0.244-0.974-0.959-0.73-1.598
		c0.236-0.647,0.959-0.974,1.605-0.738C48.684,32.703,49.011,33.418,48.775,34.065"/>
	<path fill="#58595B" d="M29.316,26.661c-0.244,0.64-0.959,0.974-1.606,0.731c-0.639-0.236-0.966-0.959-0.73-1.598
		c0.244-0.647,0.959-0.974,1.598-0.731C29.225,25.299,29.552,26.021,29.316,26.661"/>
	<path fill="#58595B" d="M16.775,15.908c-0.244,0.639-0.959,0.974-1.605,0.73c-0.64-0.236-0.974-0.958-0.731-1.598
		c0.244-0.646,0.959-0.974,1.598-0.73C16.691,14.553,17.011,15.269,16.775,15.908"/>
	<path fill="#58595B" d="M65.875,60.617c-0.121,0.319-0.479,0.486-0.799,0.373c-0.32-0.122-0.487-0.487-0.365-0.807
		c0.113-0.32,0.472-0.488,0.791-0.365C65.829,59.939,65.996,60.297,65.875,60.617"/>
	<path fill="#58595B" d="M67.146,63.889c-0.123,0.32-0.488,0.487-0.807,0.366c-0.32-0.122-0.488-0.479-0.365-0.8
		c0.121-0.319,0.471-0.494,0.799-0.373C67.1,63.212,67.26,63.569,67.146,63.889"/>
	<path fill="#58595B" d="M70.967,60.184c-0.115,0.326-0.473,0.494-0.792,0.373c-0.327-0.123-0.487-0.48-0.365-0.807
		c0.114-0.32,0.472-0.488,0.791-0.366S71.088,59.863,70.967,60.184"/>
	<path fill="#58595B" d="M32.901,63.212c-0.122,0.319-0.479,0.487-0.807,0.357c-0.319-0.114-0.487-0.472-0.365-0.791
		c0.122-0.327,0.479-0.487,0.807-0.365C32.855,62.527,33.022,62.885,32.901,63.212"/>
	<path fill="#58595B" d="M16.44,25.862c-0.122,0.327-0.479,0.487-0.799,0.365c-0.327-0.114-0.487-0.472-0.373-0.799
		c0.122-0.328,0.479-0.487,0.799-0.366C16.395,25.185,16.554,25.542,16.44,25.862"/>
	<path fill="#58595B" d="M15.215,18.084c-0.122,0.319-0.472,0.487-0.799,0.373c-0.32-0.122-0.479-0.487-0.358-0.807
		c0.114-0.319,0.472-0.487,0.792-0.365C15.169,17.407,15.337,17.765,15.215,18.084"/>
	<path fill="#58595B" d="M41.363,49.027c-0.206,0.563-0.837,0.852-1.4,0.639c-0.563-0.213-0.853-0.845-0.639-1.4
		c0.213-0.563,0.837-0.852,1.4-0.639C41.287,47.839,41.576,48.463,41.363,49.027"/>
	<path fill="#58595B" d="M64.893,65.7c-0.213,0.563-0.836,0.853-1.399,0.647c-0.563-0.214-0.853-0.838-0.64-1.408
		c0.213-0.556,0.838-0.845,1.4-0.64C64.817,64.514,65.106,65.137,64.893,65.7"/>
	<path fill="#58595B" d="M69.186,57.626c-0.198,0.563-0.838,0.845-1.4,0.64s-0.845-0.838-0.639-1.4
		c0.213-0.563,0.836-0.853,1.399-0.64C69.109,56.432,69.398,57.063,69.186,57.626"/>
	<path fill="#58595B" d="M14.195,27.666c-0.198,0.563-0.83,0.852-1.4,0.646c-0.563-0.213-0.845-0.837-0.639-1.408
		c0.213-0.563,0.837-0.852,1.4-0.639C14.126,26.478,14.408,27.102,14.195,27.666"/>
	<path fill="#58595B" d="M17.392,34.59c-0.213,0.563-0.837,0.853-1.4,0.639c-0.563-0.205-0.853-0.837-0.639-1.4
		c0.206-0.563,0.837-0.853,1.4-0.639C17.315,33.403,17.604,34.027,17.392,34.59"/>
	<path fill="#58595B" d="M41.271,31.09c-0.213,0.563-0.837,0.845-1.4,0.639c-0.571-0.206-0.853-0.837-0.639-1.4
		c0.205-0.571,0.837-0.853,1.4-0.64C41.196,29.903,41.477,30.527,41.271,31.09"/>
	<path fill="#58595B" d="M45.092,40.907c-0.205,0.563-0.837,0.853-1.4,0.639c-0.563-0.205-0.845-0.837-0.64-1.4
		c0.213-0.563,0.837-0.853,1.4-0.639C45.016,39.712,45.305,40.344,45.092,40.907"/>
	<path fill="#58595B" d="M37.01,49.209c0.106-0.305,0.457-0.464,0.761-0.35c0.312,0.114,0.472,0.457,0.35,0.776
		c-0.106,0.304-0.457,0.464-0.761,0.35C37.048,49.864,36.888,49.521,37.01,49.209"/>
	<path fill="#58595B" d="M43.25,46.333c-0.122,0.319-0.479,0.487-0.799,0.365c-0.327-0.122-0.487-0.479-0.373-0.799
		c0.122-0.319,0.487-0.495,0.807-0.373C43.205,45.648,43.372,46.013,43.25,46.333"/>
	<path fill="#58595B" d="M46.097,36.721c-0.122,0.32-0.479,0.487-0.807,0.365c-0.32-0.122-0.487-0.479-0.366-0.799
		c0.122-0.327,0.487-0.487,0.807-0.365C46.051,36.044,46.218,36.394,46.097,36.721"/>
	<path fill="#58595B" d="M43.494,31.41c-0.114,0.319-0.472,0.487-0.792,0.365c-0.327-0.122-0.487-0.479-0.365-0.799
		c0.122-0.327,0.472-0.495,0.792-0.373C43.456,30.725,43.616,31.082,43.494,31.41"/>
	<path fill="#58595B" d="M38.395,31.174c-0.122,0.327-0.479,0.487-0.807,0.365c-0.319-0.122-0.479-0.479-0.365-0.799
		c0.122-0.327,0.487-0.487,0.807-0.373C38.35,30.489,38.517,30.854,38.395,31.174"/>
	<path fill="#58595B" d="M32.626,25.847c0.114-0.297,0.441-0.457,0.746-0.343c0.304,0.114,0.457,0.449,0.335,0.746
		c-0.107,0.297-0.441,0.449-0.738,0.342C32.672,26.478,32.52,26.144,32.626,25.847"/>
	<path fill="#58595B" d="M33.776,26.28c-0.122,0.32-0.479,0.487-0.799,0.365c-0.319-0.122-0.487-0.479-0.365-0.799
		c0.122-0.32,0.472-0.487,0.799-0.373C33.73,25.595,33.897,25.961,33.776,26.28"/>
	<path fill="#58595B" d="M28.487,30.07c0.114-0.312,0.464-0.479,0.776-0.358c0.319,0.114,0.472,0.464,0.357,0.776
		s-0.464,0.479-0.784,0.357C28.525,30.732,28.365,30.382,28.487,30.07"/>
	<path fill="#58595B" d="M24.819,28.038c-0.122,0.32-0.472,0.479-0.792,0.365c-0.327-0.122-0.487-0.479-0.365-0.799
		c0.114-0.327,0.472-0.487,0.792-0.365C24.781,27.354,24.94,27.711,24.819,28.038"/>
	<path fill="#58595B" d="M20.968,34.012c-0.122,0.327-0.479,0.487-0.807,0.365c-0.32-0.122-0.479-0.472-0.365-0.799
		c0.122-0.319,0.487-0.487,0.807-0.373C20.922,33.327,21.09,33.692,20.968,34.012"/>
	<path fill="#58595B" d="M19.218,17.24c-0.122,0.319-0.479,0.479-0.807,0.357c-0.32-0.122-0.479-0.472-0.365-0.799
		c0.122-0.32,0.487-0.479,0.807-0.365C19.172,16.555,19.339,16.912,19.218,17.24"/>
	<path fill="#58595B" d="M20.846,14.279c-0.061,0.16-0.243,0.244-0.403,0.183c-0.16-0.053-0.243-0.236-0.183-0.403
		c0.061-0.16,0.236-0.236,0.403-0.175C20.824,13.944,20.907,14.12,20.846,14.279"/>
	<path fill="#58595B" d="M32.208,58.166c-0.061,0.16-0.236,0.244-0.403,0.19c-0.152-0.061-0.243-0.243-0.183-0.403
		c0.061-0.16,0.244-0.243,0.411-0.183C32.186,57.832,32.269,58.007,32.208,58.166"/>
	<radialGradient id="SVGID_1_" cx="83.4248" cy="56.4395" r="43.7464" gradientUnits="userSpaceOnUse">
		<stop  offset="0" style="stop-color:#00ADEE"/>
		<stop  offset="1" style="stop-color:#005995"/>
	</radialGradient>
	<path fill="url(#SVGID_1_)" d="M85.517,26.075c-1.248-1.994-2.702-3.843-4.262-5.57c-1.567-1.728-3.257-3.311-5.083-4.718
		c-3.631-2.854-7.732-5.03-12.01-6.431c-0.213-0.068-0.418-0.129-0.623-0.198c-0.252-0.685-0.64-1.332-1.172-1.895
		c-2.101-2.207-5.586-2.306-7.793-0.206c-0.152,0.137-0.289,0.29-0.426,0.449c-5.457-0.266-10.868,0.662-15.662,2.755
		c4.201-0.365,8.333-0.16,12.268,0.631c0.715,0.145,1.416,0.313,2.107,0.487c0.076,1.256,0.571,2.481,1.5,3.462
		c2.085,2.199,5.547,2.306,7.754,0.244c6.613,3.691,11.864,9.314,15,15.775c0.807,1.629,1.477,3.326,2.001,5.046
		c0.525,1.735,0.944,3.485,1.195,5.258c0.486,3.546,0.486,7.138-0.106,10.631c-1.097,6.818-4.33,13.127-9.079,18.021
		c-3.585-1.393-7.8-0.716-10.776,2.101c-1.895,1.804-2.945,4.162-3.158,6.582c-1.582,0.511-3.219,0.914-4.885,1.18
		c-3.486,0.594-7.085,0.586-10.632,0.092c-1.773-0.251-3.531-0.662-5.25-1.195c-1.728-0.518-3.417-1.187-5.053-1.993
		c-1.628-0.814-3.219-1.728-4.733-2.785c-1.515-1.059-2.938-2.253-4.315-3.539c-2.694-2.58-5.053-5.608-6.895-8.995
		c-1.872-3.371-3.211-7.107-4.011-11.035c-0.792-3.934-0.997-8.066-0.639-12.267C7.392,45.709,7.034,55.054,9.85,63.638
		c0.7,2.146,1.606,4.239,2.671,6.256c1.073,2.017,2.344,3.935,3.759,5.761c1.4,1.826,2.999,3.523,4.718,5.099
		c1.72,1.561,3.577,3.014,5.571,4.254c7.929,5.099,17.747,7.336,27.29,6.264c3.363-0.365,6.696-1.165,9.893-2.329
		c3.562,1.354,7.754,0.678,10.715-2.131c1.773-1.682,2.815-3.858,3.105-6.11c0.197-0.168,0.388-0.343,0.593-0.525l0.64-0.602
		l0.639-0.632c3.409-3.409,6.271-7.404,8.356-11.765c2.069-4.36,3.455-9.056,3.972-13.827C92.853,43.814,90.6,33.997,85.517,26.075z
		"/>
</g>
</svg>
